<?xml version="1.0" encoding="iso-8859-1"?>
<!-- Generator: Adobe Illustrator 19.0.0, SVG Export Plug-In . SVG Version: 6.00 Build 0)  -->
<svg version="1.1" id="Layer_1" xmlns="http://www.w3.org/2000/svg" xmlns:xlink="http://www.w3.org/1999/xlink" x="0px" y="0px"
	 viewBox="0 0 512 512" style="enable-background:new 0 0 512 512;" xml:space="preserve">
<path style="fill:#00B57D;" d="M341.61,394.676c-34.323,34.323-81.847,28.154-81.847,28.154s-6.17-47.524,28.154-81.847
	c38.222-38.222,100.908-47.216,100.908-47.216S379.931,356.355,341.61,394.676z"/>
<g>
	<path style="fill:#4EDAA1;" d="M170.388,394.676c34.323,34.323,81.847,28.154,81.847,28.154s6.17-47.524-28.154-81.847
		c-38.222-38.222-100.908-47.216-100.908-47.216S132.067,356.355,170.388,394.676z"/>
	<path style="fill:#4EDAA1;" d="M334.333,253.946c-31.406,31.406-74.889,25.761-74.889,25.761s-5.645-43.483,25.761-74.889
		c34.973-34.973,92.331-43.202,92.331-43.202S369.398,218.882,334.333,253.946z"/>
</g>
<g>
	<path style="fill:#00B57D;" d="M177.665,253.946c31.406,31.406,74.889,25.761,74.889,25.761s5.645-43.483-25.761-74.889
		c-34.972-34.973-92.331-43.203-92.331-43.203S142.602,218.882,177.665,253.946z"/>
	<path style="fill:#00B57D;" d="M325.91,120.328c-28.029,28.029-66.836,22.991-66.836,22.991s-5.038-38.807,22.991-66.836
		c31.213-31.213,82.402-38.557,82.402-38.557S357.203,89.034,325.91,120.328z"/>
</g>
<path style="fill:#4EDAA1;" d="M186.089,120.328c28.029,28.029,66.836,22.991,66.836,22.991s5.038-38.807-22.991-66.836
	c-31.213-31.213-82.402-38.557-82.402-38.557S154.796,89.034,186.089,120.328z"/>
<path d="M256,29.296c-0.952,0-1.918-0.103-2.856-0.293c-0.937-0.19-1.86-0.469-2.738-0.835c-0.893-0.366-1.743-0.82-2.533-1.347
	c-0.805-0.527-1.552-1.142-2.226-1.816c-2.724-2.724-4.291-6.502-4.291-10.353c0-0.967,0.103-1.918,0.293-2.87
	c0.176-0.937,0.469-1.86,0.835-2.738c0.366-0.879,0.82-1.728,1.347-2.519c0.527-0.805,1.142-1.552,1.816-2.241
	c0.674-0.674,1.42-1.274,2.226-1.816c0.791-0.527,1.64-0.981,2.533-1.347c0.879-0.366,1.801-0.644,2.738-0.835
	c1.889-0.381,3.837-0.381,5.711,0c0.937,0.19,1.86,0.469,2.737,0.835c0.893,0.366,1.743,0.82,2.533,1.347
	c0.805,0.542,1.552,1.142,2.226,1.816c0.675,0.688,1.29,1.435,1.816,2.241c0.527,0.791,0.981,1.64,1.347,2.519
	c0.366,0.879,0.659,1.801,0.835,2.738c0.19,0.952,0.293,1.918,0.293,2.87c0,3.851-1.567,7.63-4.292,10.353
	c-0.674,0.674-1.421,1.289-2.226,1.816c-0.791,0.527-1.64,0.981-2.533,1.347c-0.879,0.366-1.8,0.644-2.737,0.835
	C257.917,29.193,256.952,29.296,256,29.296z"/>
<path d="M399.174,283.405c-3.263-3.258-7.874-4.79-12.427-4.134c-2.758,0.395-67.987,10.16-109.185,51.356
	c-2.488,2.488-4.787,5.035-6.919,7.619v-43.549c17.418-0.476,48.866-5.219,74.046-30.397l0,0
	c38.081-38.081,46.985-98.089,47.345-100.625c0.649-4.563-0.889-9.166-4.15-12.423c-3.263-3.258-7.871-4.787-12.427-4.134
	c-2.539,0.365-62.622,9.359-100.606,47.343c-1.479,1.479-2.864,2.987-4.206,4.506v-40.758c16.078-0.677,43.515-5.423,65.622-27.528
	c34.354-34.354,42.375-88.413,42.698-90.698c0.649-4.563-0.889-9.166-4.15-12.421c-3.263-3.257-7.873-4.79-12.427-4.134
	c-2.289,0.328-56.411,8.431-90.677,42.697c-0.368,0.368-0.707,0.745-1.066,1.117v-8.664c0-8.088-6.558-14.644-14.644-14.644
	c-8.088,0-14.644,6.556-14.644,14.644v8.664c-0.359-0.37-0.697-0.748-1.066-1.117c-34.266-34.266-88.39-42.369-90.677-42.697
	c-4.559-0.658-9.166,0.877-12.429,4.134c-3.261,3.257-4.799,7.86-4.15,12.423c0.325,2.285,8.346,56.342,42.7,90.696
	c22.108,22.108,49.546,26.853,65.622,27.528v40.759c-1.341-1.519-2.727-3.027-4.206-4.506
	c-37.984-37.984-98.067-46.98-100.606-47.343c-4.56-0.655-9.167,0.877-12.429,4.134c-3.261,3.257-4.799,7.86-4.15,12.423
	c0.36,2.535,9.264,62.543,47.346,100.625c25.179,25.181,56.629,29.923,74.046,30.397v43.551c-2.132-2.585-4.43-5.131-6.919-7.619
	c-41.196-41.197-106.427-50.962-109.183-51.357c-4.56-0.658-9.167,0.877-12.429,4.134c-3.261,3.257-4.799,7.86-4.15,12.423
	c0.391,2.753,10.058,67.901,51.359,109.204l0,0c27.864,27.864,62.833,32.551,81.321,32.856v15.542
	c0,8.088,6.556,14.644,14.644,14.644c8.087,0,14.644-6.556,14.644-14.644v-15.542c18.493-0.305,53.462-4.995,81.323-32.856
	c41.301-41.303,50.968-106.451,51.357-109.204C403.974,291.264,402.435,286.661,399.174,283.405z M295.56,215.173
	c18.349-18.351,44.268-28.64,62.456-33.995c-5.314,18.131-15.571,43.944-34.039,62.414c-16.321,16.321-37.057,20.635-50.095,21.602
	C274.803,252.212,279.095,231.637,295.56,215.173z M292.42,86.836c15.236-15.237,36.45-24.17,52.28-29.1
	c-4.894,15.772-13.805,36.895-29.145,52.235l0,0c-13.449,13.449-30.377,17.541-41.79,18.658
	C274.882,117.201,278.975,100.28,292.42,86.836z M196.444,109.971c-15.253-15.253-24.178-36.413-29.1-52.22
	c15.83,4.934,37.013,13.864,52.233,29.084c13.448,13.449,17.541,30.378,18.658,41.792
	C226.808,127.508,209.886,123.415,196.444,109.971z M188.021,243.591L188.021,243.591c-18.376-18.376-28.651-44.234-33.998-62.401
	c18.193,5.36,44.082,15.647,62.417,33.983c16.284,16.284,20.616,36.967,21.594,50.01
	C224.971,264.203,204.298,259.868,188.021,243.591z M180.743,384.32L180.743,384.32c-21.105-21.105-32.518-51.107-38.192-71.187
	c20.067,5.661,50.029,17.061,71.176,38.205c18.789,18.789,23.258,42.807,24.103,57.157
	C223.536,407.701,199.687,403.262,180.743,384.32z M331.255,384.32c-18.755,18.755-42.72,23.242-57.08,24.1
	c0.858-14.378,5.348-38.333,24.097-57.082c21.061-21.061,51.101-32.488,71.203-38.178
	C363.831,333.204,352.448,363.128,331.255,384.32z"/>
<path d="M256,512c-0.952,0-1.918-0.088-2.856-0.278c-0.937-0.19-1.86-0.469-2.738-0.835c-0.893-0.366-1.743-0.82-2.533-1.347
	c-0.805-0.542-1.552-1.142-2.226-1.816c-0.674-0.688-1.289-1.435-1.816-2.241c-0.527-0.791-0.981-1.64-1.347-2.519
	c-0.366-0.893-0.659-1.801-0.835-2.738c-0.19-0.952-0.293-1.918-0.293-2.87s0.103-1.918,0.293-2.856
	c0.176-0.937,0.469-1.86,0.835-2.738s0.82-1.743,1.347-2.533c0.527-0.805,1.142-1.552,1.816-2.226s1.421-1.289,2.226-1.816
	c0.791-0.527,1.64-0.981,2.533-1.347c0.879-0.366,1.801-0.644,2.738-0.835c1.889-0.381,3.837-0.381,5.711,0
	c0.937,0.19,1.86,0.469,2.737,0.835c0.893,0.366,1.743,0.82,2.533,1.347c0.805,0.527,1.552,1.142,2.226,1.816
	c0.675,0.674,1.29,1.421,1.816,2.226c0.527,0.791,0.981,1.655,1.347,2.533c0.366,0.879,0.659,1.801,0.835,2.738
	c0.19,0.937,0.293,1.904,0.293,2.856c0,0.952-0.103,1.918-0.293,2.87c-0.176,0.937-0.469,1.845-0.835,2.738
	c-0.366,0.879-0.82,1.728-1.347,2.519c-0.526,0.805-1.141,1.552-1.816,2.241c-0.674,0.674-1.421,1.274-2.226,1.816
	c-0.791,0.527-1.64,0.981-2.533,1.347c-0.879,0.366-1.8,0.644-2.737,0.835C257.917,511.912,256.952,512,256,512z"/>
<g>
</g>
<g>
</g>
<g>
</g>
<g>
</g>
<g>
</g>
<g>
</g>
<g>
</g>
<g>
</g>
<g>
</g>
<g>
</g>
<g>
</g>
<g>
</g>
<g>
</g>
<g>
</g>
<g>
</g>
</svg>
